<svg width="850" height="250" viewBox="0 0 850 250" fill="none" xmlns="http://www.w3.org/2000/svg">
<g clip-path="url(#clip0_2300_372495)">
<path d="M125 0C55.975 0 0 55.975 0 125C0 132.475 0.7 139.775 1.95 146.875H29.7C33.25 146.875 35.375 145.725 36.75 143.5L46.5 127.35L58.975 166.075C60.2 169.975 63.1 172 67 172.025C71 172.05 74.3 169.6 75.075 165.6L84.125 122.95L93.975 190.95C94.575 195.425 96.75 197.675 101.25 197.675H101.3C105.775 197.675 107.925 195.25 108.55 190.8L128.625 58.45C129.2 54.35 126.325 50.55 122.225 49.975C118.15 49.425 114.325 52.275 113.75 56.375L101.375 141.225L93.05 84.6C92.5 80.25 89.2 77.55 85.6 77.475C81.525 77.375 78.5 79.925 77.65 84.25L65.7 139.65L56.15 109.925C55.4 106.7 52.525 104.3 49.375 103.925C45.025 103.4 42.55 105.65 40.725 108.625L25.95 131.875H17.125C16.975 129.6 16.875 127.3 16.875 125C16.875 65.275 65.275 16.875 125 16.875C173.15 16.875 213.95 48.375 227.925 91.875H245.525C231 38.925 182.575 0 125 0Z" fill="url(#paint0_linear_2300_372495)"/>
<path d="M248.05 103.125H220.25C216.7 103.125 214.575 104.275 213.2 106.5L203.45 122.65L190.975 83.925C189.75 80.025 186.85 78 182.95 77.975C178.95 77.95 175.65 80.4 174.875 84.4L165.825 127.05L155.975 59.05C155.375 54.575 153.2 52.325 148.7 52.325H148.65C144.175 52.325 142.025 54.75 141.4 59.2L121.325 191.55C120.75 195.65 123.625 199.45 127.725 200.025C131.8 200.575 135.625 197.725 136.2 193.625L148.575 108.775L156.9 165.4C157.45 169.75 160.75 172.45 164.35 172.525C168.425 172.625 171.45 170.075 172.3 165.75L184.25 110.35L193.8 140.075C194.55 143.3 197.425 145.7 200.575 146.075C204.925 146.6 207.4 144.35 209.225 141.375L224 118.125H232.875C233.025 120.4 233.125 122.7 233.125 125C233.125 184.725 184.725 233.125 125 233.125C76.85 233.125 36.05 201.625 22.075 158.125H4.475C19 211.075 67.45 250 125 250C194.025 250 250 194.025 250 125C250 117.525 249.3 110.225 248.05 103.125Z" fill="url(#paint1_linear_2300_372495)"/>
</g>
<g clip-path="url(#clip1_2300_372495)">
<path d="M359.264 62.5039H385.118V159.345C385.118 164.145 386.37 167.694 388.849 170.12C390.232 171.398 391.875 172.363 393.675 172.99C395.475 173.616 397.38 173.877 399.284 173.772C404.085 173.772 407.633 172.442 409.981 169.807C412.407 166.78 413.607 162.998 413.424 159.189V62.5039H439.278V158.276C439.33 162.632 438.626 166.937 437.191 171.059C435.835 174.868 433.565 178.338 430.513 181.103C427.147 184.103 423.103 186.347 418.72 187.651C413.033 189.321 407.085 190.104 401.111 189.973C393.075 189.973 386.71 188.904 382.066 186.764C378.179 185.199 374.761 182.695 372.152 179.538C369.517 182.695 366.126 185.173 362.238 186.764C357.595 188.904 351.255 189.973 343.194 189.973C337.245 190.104 331.297 189.321 325.61 187.651C321.201 186.347 317.157 184.103 313.792 181.103C310.739 178.312 308.47 174.868 307.113 171.059C305.652 166.937 304.948 162.606 305 158.276V62.5039H330.958V159.189C330.749 162.998 331.975 166.78 334.402 169.807C336.698 172.442 340.272 173.772 345.098 173.798C347.003 173.903 348.907 173.642 350.707 173.016C352.507 172.39 354.151 171.398 355.534 170.146C358.012 167.72 359.238 164.119 359.238 159.371V62.5039H359.264Z" fill="white"/>
<path d="M464.585 62.5039H533.537V78.7833H490.412V113.951H530.928V130.282H490.412V171.294H535.259V187.573H464.559V62.5039H464.585Z" fill="white"/>
<path d="M609.585 90.7282C609.585 85.9279 608.359 82.3798 605.881 79.9536C604.498 78.7013 602.855 77.7099 601.054 77.0838C599.254 76.4577 597.35 76.1968 595.445 76.3011C590.619 76.3011 587.097 77.6317 584.749 80.2927C582.323 83.319 581.097 87.0758 581.305 90.9108V187.569H555.451V91.7196C555.399 87.3888 556.104 83.0581 557.512 78.9361C558.869 75.1272 561.165 71.6834 564.191 68.892C567.557 65.8918 571.6 63.6481 575.983 62.3437C581.671 60.674 587.619 59.8914 593.567 60.0218C601.602 60.0218 607.968 61.0914 612.612 63.2307C616.473 64.8221 619.864 67.3266 622.473 70.5095C625.134 67.3266 628.578 64.8482 632.491 63.2829C637.135 61.1436 643.475 60.074 651.536 60.074C657.458 59.9435 663.354 60.7001 669.042 62.3698C673.451 63.6742 677.52 65.9178 680.912 68.918C683.964 71.6834 686.26 75.1532 687.591 78.9622C688.999 83.0842 689.704 87.4149 689.652 91.7457V187.543H663.693V90.8847C663.902 87.0758 662.676 83.2929 660.25 80.2666C657.954 77.6056 654.406 76.2751 649.553 76.2751C647.649 76.1707 645.744 76.4316 643.97 77.0577C642.196 77.6838 640.553 78.6491 639.17 79.9275C636.692 82.3537 635.465 85.9279 635.465 90.7021V187.543H609.559V90.7282H609.585Z" fill="white"/>
<path d="M740.786 187.573H714.932V62.5039H740.786V187.573Z" fill="white"/>
<path d="M760.117 62.5039H786.154L804.259 101.376L822.182 62.5039H848.401L817.199 124.282L849.601 187.547H822.704L804.259 146.196L785.893 187.547H759.021L791.345 124.282L760.117 62.5039Z" fill="white"/>
</g>
<defs>
<linearGradient id="paint0_linear_2300_372495" x1="0" y1="0" x2="250" y2="250" gradientUnits="userSpaceOnUse">
<stop stop-color="#FC829F"/>
<stop offset="0.336804" stop-color="#FF1C53"/>
<stop offset="0.435763" stop-color="#EA49F8"/>
<stop offset="0.529514" stop-color="#B250FF"/>
<stop offset="0.633681" stop-color="#5E5FF5"/>
<stop offset="1" stop-color="#323CFF"/>
</linearGradient>
<linearGradient id="paint1_linear_2300_372495" x1="0" y1="0" x2="250" y2="250" gradientUnits="userSpaceOnUse">
<stop stop-color="#FC829F"/>
<stop offset="0.336804" stop-color="#FF1C53"/>
<stop offset="0.435763" stop-color="#EA49F8"/>
<stop offset="0.529514" stop-color="#B250FF"/>
<stop offset="0.633681" stop-color="#5E5FF5"/>
<stop offset="1" stop-color="#323CFF"/>
</linearGradient>
<clipPath id="clip0_2300_372495">
<rect width="250" height="250" fill="white"/>
</clipPath>
<clipPath id="clip1_2300_372495">
<rect width="544.576" height="130" fill="white" transform="translate(305 60)"/>
</clipPath>
</defs>
</svg>
